<svg t="1677896241052" class="icon" viewBox="0 0 1024 1024" version="1.1" xmlns="http://www.w3.org/2000/svg" p-id="12674" width="200" height="200"><path d="M493.226667 488.106667c-18.773333 0-35.84 5.12-51.2 18.773333-11.946667 15.36-18.773333 32.4096-18.773334 51.2 0 18.773333 6.826667 35.84 18.773334 49.476267 15.36 13.6704 32.426667 20.48 51.2 20.48s35.84-6.8096 49.493333-20.48c13.653333-13.653333 22.186667-30.72 22.186667-49.476267 0-18.7904-8.533333-35.84-22.186667-51.2-13.653333-13.653333-30.72-18.773333-49.493333-18.773333z" fill="#E95206" p-id="12675"></path><path d="M754.346667 353.28h-29.013334c-19.0976 0-32.426667 14.0288-32.426666 34.133333v27.306667c0 20.104533 13.329067 34.133333 32.426666 34.133333h29.013334c19.780267 0 34.133333-14.353067 34.133333-34.133333v-27.306667c0-19.7632-14.353067-34.133333-34.133333-34.133333z m0 61.44l-27.306667-0.034133V387.413333h27.306667l0.8704 27.204267s-0.273067 0.1024-0.8704 0.1024zM494.933333 346.453333c-58.299733 0-106.427733 20.701867-146.3296 62.498134C307.541333 446.429867 286.72 496.0256 286.72 556.373333c0 59.6992 20.718933 109.806933 61.320533 148.599467C388.727467 745.659733 438.152533 766.293333 494.933333 766.293333c58.641067 0 108.151467-20.736 146.6368-61.064533 41.984-40.157867 63.2832-90.248533 63.2832-148.872533 0-59.306667-21.384533-108.9024-62.481066-146.3296C603.306667 367.2576 555.0592 346.453333 494.933333 346.453333z m122.487467 334.660267C584.635733 715.4688 544.5632 732.16 494.933333 732.16c-48.059733 0-88.2176-16.776533-123.0336-51.592533-34.3552-32.853333-51.0464-73.472-51.0464-124.194134 0-51.063467 16.605867-91.0336 51.592534-123.016533C406.391467 397.841067 446.464 380.586667 494.933333 380.586667c50.005333 0 89.975467 17.169067 123.3408 53.572266C653.073067 465.937067 670.72 507.050667 670.72 556.373333c0 48.9472-17.749333 90.7264-53.2992 124.740267z" fill="#0A0AE5" p-id="12676"></path><path d="M837.973333 293.546667h-86.408533l-81.9712-88.405334a17.066667 17.066667 0 0 0-12.509867-5.461333H404.48a17.066667 17.066667 0 0 0-12.509867 5.461333l-81.9712 88.405334H283.306667v-44.373334a17.066667 17.066667 0 0 0-17.066667-17.066666H168.96a17.066667 17.066667 0 0 0-17.066667 17.066666v47.496534C96.324267 304.725333 64.853333 345.088 64.853333 409.6v324.266667c0 73.745067 42.308267 116.053333 116.053334 116.053333h657.066666c73.728 0 114.346667-41.216 114.346667-116.053333V409.6c0-74.837333-40.618667-116.053333-114.346667-116.053333zM918.186667 733.866667c0 55.876267-25.480533 81.92-80.213334 81.92H180.906667c-55.125333 0-81.92-26.794667-81.92-81.92V409.6c0-51.8144 23.722667-78.813867 70.485333-80.2304a17.066667 17.066667 0 0 0 16.554667-17.066667v-46.08h63.146666v44.373334a17.066667 17.066667 0 0 0 17.066667 17.066666h51.2a17.066667 17.066667 0 0 0 12.509867-5.461333l81.9712-88.405333h237.687466l81.9712 88.405333a17.066667 17.066667 0 0 0 12.509867 5.461333h93.866667c54.7328 0 80.213333 26.026667 80.213333 81.92V733.866667z" fill="#0A0AE5" p-id="12677"></path></svg>